<svg width="1200" height="1200" xmlns="http://www.w3.org/2000/svg" xmlns:xlink="http://www.w3.org/1999/xlink" version="1.1"><g transform="scale(12.705883493390566) translate(2.72222179836697, 0.3722195095486107)">                        <g fill="#ff0000"><g xmlns="http://www.w3.org/2000/svg"><path d="M29,28.9c0.2,0.2,0.4,0.3,0.6,0.3c0.2,0,0.5-0.1,0.6-0.3l3.8-3.8l-3.8-3.8c-0.4-0.4-0.9-0.4-1.3,0c-0.4,0.4-0.4,0.9,0,1.3   l2.5,2.5L29,27.6C28.7,28,28.7,28.6,29,28.9z"/><path d="M35.3,28.1c-0.5,0-0.9,0.4-0.9,0.9c0,0.5,0.4,0.9,0.9,0.9h4.8c0.5,0,0.9-0.4,0.9-0.9c0-0.5-0.4-0.9-0.9-0.9H35.3z"/><path d="M74.2,31.6c0.8-0.2,1.8-0.3,2.7-0.3c1.4,0,2.6,0.3,3.1,0.7c1.4,1.1,2,2.1,2.1,2.1l0.3,0.5l0.2-0.1V55c0,1.5-0.5,2.9-1.4,4   l0.6,2.4c1.8-1.6,2.9-3.8,2.9-6.4v-21l2.3-0.6l-0.8-1c-0.1-0.1-0.6-0.9-1.5-1.9v-9.2c0-4.7-3.8-8.5-8.5-8.5H29.8   c-4.7,0-8.5,3.8-8.5,8.5V35c-0.8,0.2-1.5,0.5-2.3,0.8l-2.2-3.5L12.1,35l1.9,3.6c-1.4,1.1-2.6,2.3-3.7,3.7l-3.6-1.9L4,45.1l3.5,2.2   c-0.7,1.7-1.1,3.4-1.4,5.1L2,52.5V58l4.1,0.1c0.2,1.7,0.7,3.5,1.4,5.1L4,65.4l2.7,4.7l3.6-1.9c1.1,1.4,2.3,2.6,3.7,3.7l-1.9,3.6   l4.7,2.7l2.2-3.5c1.7,0.7,3.4,1.1,5.1,1.4l0.1,4.1h5.5l0.1-4.1c1.7-0.2,3.5-0.7,5.1-1.4l2.2,3.5l4.7-2.7L40,71.9   c1.4-1.1,2.6-2.3,3.7-3.7l3.6,1.9l2.7-4.7l-3-1.9h22.9l-0.5-2.1H29.8c-3.5,0-6.4-2.9-6.4-6.4V21.3c0-3.5,2.9-6.4,6.4-6.4h46.4   c3.5,0,6.4,2.9,6.4,6.4v6.9c-0.6-0.6-1.2-1.2-1.8-1.6C78.7,25,75.6,24,72.7,24c-1,0-1.9,0.1-2.7,0.3l-11.5,2.9L56.7,26l-5.6,1.4   L54.3,40l5.6-1.4l1-1.9l3.9-1l11,45.2l9.1-2.3L72.8,33.3L74.2,31.6z M11.5,59.1c-1-3.9-0.5-8.1,1.7-11.8c1.9-3.3,4.8-5.6,8.1-6.9   v10.4c-0.2,0.3-0.4,0.6-0.6,0.9c-0.7,1.2-1,2.4-1,3.7c0,1.5-0.8,2.9-2.1,3.7l-2.7,1.6C13.6,61.3,11.9,60.6,11.5,59.1z M38.2,63.5   c0.8,0.9,0.9,2.3-0.1,3.2c-5,4.8-12.8,6-19.1,2.3c-1.1-0.7-2.2-1.4-3.1-2.3c-1.1-1.1-0.9-2.9,0.4-3.7l2.7-1.6   c1.3-0.8,2.9-0.7,4.2,0c0,0,0,0,0,0c0.7,0.4,1.5,0.7,2.2,0.8c1.2,0.7,2.7,1.1,4.2,1.1H38.2z M59.7,35.2l-1,1.9l-3.2,0.8l-2.3-9.2   l3.2-0.8l1.8,1.2L70.4,26c0.7-0.2,1.5-0.3,2.3-0.3c2.5,0,5.3,0.9,7,2.3c1.5,1.2,3.3,3.3,4.3,4.5l-0.9,0.2c-0.4-0.5-1.1-1.3-2.1-2.1   c-1.1-0.9-2.9-1.1-4.2-1.1c-1.2,0-2.4,0.1-3.4,0.4L73.2,30l-1.7,2.2L59.7,35.2z"/><rect x="56.6" y="31.6" transform="matrix(-0.2466 -0.9691 0.9691 -0.2466 42.9199 97.4263)" width="5.5" height="0.9"/></g></g>        </g></svg>